<svg width="136" height="179" viewBox="0 0 136 179" fill="none" xmlns="http://www.w3.org/2000/svg">
<rect width="136" height="179" rx="12" fill="white"/>
<rect x="21.5" y="45.5" width="93" height="57" stroke="#AA6866" stroke-width="3"/>
<rect x="20.5" y="95" width="95" height="8" fill="#AA6866" stroke="#AA6866"/>
<path d="M113.856 96H57.0918L84.4873 64.25L113.856 96Z" fill="#AA6866" stroke="#AA6866"/>
<path d="M60.8809 95H21.084L40.5029 72.2588L60.8809 95Z" fill="#AA6866" stroke="#AA6866"/>
<circle cx="53" cy="60.5" r="4.5" fill="#AA6866" stroke="#AA6866"/>
<path d="M30.816 118.576H32.944V133.44H30.816V118.576ZM24.96 119.616C25.7173 119.616 26.3893 119.835 26.976 120.272C27.5627 120.699 28.0213 121.312 28.352 122.112C28.6933 122.901 28.864 123.835 28.864 124.912C28.864 126 28.6933 126.944 28.352 127.744C28.0213 128.533 27.5627 129.147 26.976 129.584C26.3893 130.011 25.7173 130.224 24.96 130.224C24.2133 130.224 23.5467 130.011 22.96 129.584C22.3733 129.147 21.9093 128.533 21.568 127.744C21.2373 126.944 21.072 126 21.072 124.912C21.072 123.835 21.2373 122.901 21.568 122.112C21.9093 121.312 22.3733 120.699 22.96 120.272C23.5467 119.835 24.2133 119.616 24.96 119.616ZM24.96 121.552C24.5973 121.552 24.2773 121.68 24 121.936C23.7227 122.192 23.504 122.571 23.344 123.072C23.1947 123.563 23.12 124.176 23.12 124.912C23.12 125.637 23.1947 126.256 23.344 126.768C23.504 127.269 23.7227 127.648 24 127.904C24.2773 128.16 24.5973 128.288 24.96 128.288C25.3333 128.288 25.6587 128.16 25.936 127.904C26.2133 127.648 26.4267 127.269 26.576 126.768C26.736 126.256 26.816 125.637 26.816 124.912C26.816 124.176 26.736 123.563 26.576 123.072C26.4267 122.571 26.2133 122.192 25.936 121.936C25.6587 121.68 25.3333 121.552 24.96 121.552ZM36.0948 119.92H43.2148V129.888H36.0948V119.92ZM41.1348 121.6H38.1908V128.208H41.1348V121.6ZM45.5348 118.576H47.6628V133.44H45.5348V118.576ZM53.6615 120.944H55.3575V122.608C55.3575 123.461 55.2668 124.299 55.0855 125.12C54.9148 125.941 54.6535 126.715 54.3015 127.44C53.9602 128.155 53.5282 128.789 53.0055 129.344C52.4828 129.888 51.8748 130.32 51.1815 130.64L49.9655 128.96C50.5842 128.672 51.1228 128.299 51.5815 127.84C52.0508 127.381 52.4348 126.869 52.7335 126.304C53.0428 125.728 53.2722 125.125 53.4215 124.496C53.5815 123.856 53.6615 123.227 53.6615 122.608V120.944ZM54.1255 120.944H55.8055V122.608C55.8055 123.195 55.8802 123.792 56.0295 124.4C56.1895 124.997 56.4188 125.568 56.7175 126.112C57.0162 126.645 57.3948 127.125 57.8535 127.552C58.3122 127.979 58.8562 128.32 59.4855 128.576L58.3175 130.272C57.6135 129.963 57.0002 129.547 56.4775 129.024C55.9548 128.501 55.5175 127.899 55.1655 127.216C54.8135 126.533 54.5522 125.803 54.3815 125.024C54.2108 124.235 54.1255 123.429 54.1255 122.608V120.944ZM50.5575 120.016H58.8775V121.776H50.5575V120.016ZM60.2535 118.608H62.3815V133.424H60.2535V118.608ZM73.6693 120.16H75.5573V120.528C75.5573 121.115 75.4293 121.675 75.1733 122.208C74.9279 122.731 74.5653 123.205 74.0853 123.632C73.6053 124.048 73.0026 124.405 72.2773 124.704C71.5626 124.992 70.7359 125.189 69.7973 125.296L69.0133 123.616C69.6533 123.541 70.2239 123.429 70.7253 123.28C71.2373 123.131 71.6746 122.949 72.0373 122.736C72.4106 122.523 72.7146 122.299 72.9493 122.064C73.1946 121.819 73.3759 121.568 73.4933 121.312C73.6106 121.045 73.6693 120.784 73.6693 120.528V120.16ZM74.7093 120.16H76.5813V120.528C76.5813 120.784 76.6399 121.045 76.7573 121.312C76.8746 121.568 77.0559 121.819 77.3013 122.064C77.5466 122.309 77.8506 122.539 78.2133 122.752C78.5759 122.955 79.0079 123.131 79.5093 123.28C80.0213 123.429 80.5973 123.541 81.2373 123.616L80.4693 125.296C79.5199 125.189 78.6879 124.992 77.9733 124.704C77.2586 124.416 76.6559 124.059 76.1653 123.632C75.6853 123.205 75.3226 122.731 75.0773 122.208C74.8319 121.675 74.7093 121.115 74.7093 120.528V120.16ZM69.6533 119.232H80.6293V120.912H69.6533V119.232ZM68.4213 125.968H81.8453V127.664H68.4213V125.968ZM74.2453 127.056H76.3733V130.176H74.2453V127.056ZM69.9733 131.456H80.3573V133.168H69.9733V131.456ZM69.9733 128.896H72.1013V132.064H69.9733V128.896ZM93.316 118.576H95.444V133.44H93.316V118.576ZM83.876 119.76H85.988V123.376H89.06V119.76H91.172V129.984H83.876V119.76ZM85.988 125.024V128.288H89.06V125.024H85.988ZM107.132 126.048H109.244V128.656H107.132V126.048ZM101.484 125.328H114.892V127.024H101.484V125.328ZM108.156 128.064C109.756 128.064 111.014 128.299 111.932 128.768C112.849 129.227 113.308 129.888 113.308 130.752C113.308 131.595 112.849 132.251 111.932 132.72C111.014 133.189 109.756 133.424 108.156 133.424C106.556 133.424 105.297 133.189 104.38 132.72C103.473 132.251 103.02 131.595 103.02 130.752C103.02 129.888 103.473 129.227 104.38 128.768C105.297 128.299 106.556 128.064 108.156 128.064ZM108.156 129.68C107.494 129.68 106.94 129.717 106.492 129.792C106.054 129.867 105.724 129.984 105.5 130.144C105.276 130.293 105.164 130.496 105.164 130.752C105.164 130.987 105.276 131.184 105.5 131.344C105.724 131.504 106.054 131.621 106.492 131.696C106.94 131.771 107.494 131.808 108.156 131.808C108.817 131.808 109.366 131.771 109.804 131.696C110.252 131.621 110.588 131.504 110.812 131.344C111.036 131.184 111.148 130.987 111.148 130.752C111.148 130.496 111.036 130.293 110.812 130.144C110.588 129.984 110.252 129.867 109.804 129.792C109.366 129.717 108.817 129.68 108.156 129.68ZM106.732 120H108.62V120.352C108.62 120.8 108.54 121.227 108.38 121.632C108.22 122.037 107.98 122.416 107.66 122.768C107.35 123.109 106.961 123.419 106.492 123.696C106.022 123.973 105.478 124.203 104.86 124.384C104.241 124.565 103.553 124.693 102.796 124.768L102.06 123.088C102.71 123.035 103.286 122.944 103.788 122.816C104.3 122.688 104.737 122.533 105.1 122.352C105.473 122.16 105.777 121.957 106.012 121.744C106.257 121.52 106.438 121.291 106.556 121.056C106.673 120.821 106.732 120.587 106.732 120.352V120ZM107.772 120H109.644V120.352C109.644 120.587 109.702 120.827 109.82 121.072C109.937 121.307 110.113 121.531 110.348 121.744C110.593 121.957 110.897 122.16 111.26 122.352C111.633 122.533 112.07 122.688 112.572 122.816C113.084 122.944 113.665 123.035 114.316 123.088L113.58 124.768C112.822 124.693 112.134 124.565 111.516 124.384C110.897 124.203 110.353 123.979 109.884 123.712C109.425 123.435 109.036 123.125 108.716 122.784C108.406 122.432 108.172 122.053 108.012 121.648C107.852 121.232 107.772 120.8 107.772 120.352V120ZM102.716 119.216H113.692V120.896H102.716V119.216Z" fill="#AA6866"/>
</svg>
