<svg width="576" height="103" viewBox="0 0 576 103" fill="none" xmlns="http://www.w3.org/2000/svg">
<path d="M49.688 102.408C38.7653 102.408 29.6773 100.616 22.424 97.032C15.1707 93.3627 9.752 88.2427 6.168 81.672C2.66933 75.1013 0.92 67.4213 0.92 58.632C0.92 48.904 2.92533 40.4133 6.936 33.16C10.9467 25.8213 16.7067 20.1467 24.216 16.136C31.8107 12.1253 40.9413 10.12 51.608 10.12C61.592 10.12 69.2293 12.1253 74.52 16.136C79.896 20.0613 82.584 25.48 82.584 32.392C82.584 37.4267 81.176 41.4373 78.36 44.424C75.6293 47.3253 71.6187 48.776 66.328 48.776C63.4267 48.776 60.9093 48.392 58.776 47.624C56.6427 46.856 54.5093 46.1307 52.376 45.448C50.2427 44.68 47.768 44.296 44.952 44.296C42.5627 44.296 40.3013 44.68 38.168 45.448C36.12 46.1307 34.456 47.368 33.176 49.16C31.9813 50.8667 31.384 53.256 31.384 56.328C31.384 60.3387 32.5787 63.1973 34.968 64.904C37.4427 66.6107 40.6853 67.464 44.696 67.464C46.744 67.464 49.048 67.336 51.608 67.08C54.168 66.7387 56.6853 66.44 59.16 66.184C61.72 65.928 63.896 65.8 65.688 65.8C70.2107 65.8 73.7947 67.08 76.44 69.64C79.1707 72.1147 80.536 75.8693 80.536 80.904C80.536 87.4747 78.0187 92.7227 72.984 96.648C68.0347 100.488 60.2693 102.408 49.688 102.408ZM102.45 2.824C107.741 2.824 111.495 4.06133 113.714 6.536C116.018 9.01066 117.17 11.8693 117.17 15.112C117.17 19.0373 115.762 22.1093 112.946 24.328C110.13 26.4613 106.205 27.528 101.17 27.528C96.2207 27.528 92.5087 26.3333 90.034 23.944C87.6447 21.5547 86.45 18.7387 86.45 15.496C86.45 11.3147 87.9007 8.15733 90.802 6.02399C93.7887 3.89066 97.6713 2.824 102.45 2.824ZM103.858 31.368C108.039 31.368 111.282 33.928 113.586 39.048C115.975 44.168 117.17 52.3173 117.17 63.496C117.17 77.2347 115.677 87.1333 112.69 93.192C109.789 99.2507 105.351 102.28 99.378 102.28C94.6847 102.28 91.2287 100.061 89.01 95.624C86.8767 91.1013 85.81 83.2507 85.81 72.072C85.81 58.3333 87.474 48.136 90.802 41.48C94.13 34.7387 98.482 31.368 103.858 31.368ZM140.614 21.384C144.881 21.384 147.825 22.4933 149.446 24.712C151.153 26.9307 152.006 30.216 152.006 34.568C152.006 35.592 151.921 36.7013 151.75 37.896C151.665 39.0053 151.494 40.0293 151.238 40.968L150.982 38.408C152.945 32.8613 156.017 28.552 160.198 25.48C164.379 22.3227 168.817 20.744 173.51 20.744C179.313 20.744 184.134 22.3653 187.974 25.608C191.814 28.7653 194.673 33.288 196.55 39.176C198.513 44.9787 199.494 51.848 199.494 59.784C199.494 63.7947 199.323 67.7627 198.982 71.688C198.641 75.6133 198.171 79.1973 197.574 82.44C196.977 85.5973 196.209 88.2 195.27 90.248C193.905 93.4053 191.942 95.7947 189.382 97.416C186.822 98.952 183.793 99.72 180.294 99.72C176.369 99.72 173.339 98.44 171.206 95.88C169.158 93.2347 168.134 89.608 168.134 85C168.134 82.44 168.262 79.4107 168.518 75.912C168.774 72.4133 168.987 68.9573 169.158 65.544C169.414 62.1307 169.542 59.3147 169.542 57.096C169.542 50.0987 167.451 46.6 163.27 46.6C160.966 46.6 159.003 47.7093 157.382 49.928C155.761 52.1467 154.694 55.2613 154.182 59.272C153.926 61.32 153.713 63.88 153.542 66.952C153.457 70.024 153.329 73.096 153.158 76.168C153.073 79.1547 152.945 81.672 152.774 83.72C152.262 89.864 150.726 94.2587 148.166 96.904C145.691 99.5493 142.321 100.872 138.054 100.872C132.849 100.872 128.923 99.4213 126.278 96.52C123.633 93.5333 122.31 88.5413 122.31 81.544C122.31 77.96 122.395 73.9493 122.566 69.512C122.737 65.0747 122.95 60.6373 123.206 56.2C123.547 51.6773 123.931 47.5813 124.358 43.912C125.211 36.9147 126.918 31.4107 129.478 27.4C132.038 23.3893 135.75 21.384 140.614 21.384ZM246.672 102.024C236.176 102.024 227.813 100.616 221.584 97.8C215.355 94.984 210.832 90.9307 208.016 85.64C205.285 80.3493 203.92 74.0347 203.92 66.696C203.92 57.3947 205.84 49.5013 209.68 43.016C213.605 36.4453 218.939 31.4107 225.68 27.912C232.507 24.4133 240.229 22.664 248.848 22.664C259.088 22.664 266.597 24.712 271.376 28.808C276.155 32.8187 278.544 38.1093 278.544 44.68C278.544 49.8853 277.093 54.408 274.192 58.248C271.376 62.088 267.408 65.032 262.288 67.08C257.253 69.128 251.408 70.152 244.752 70.152C241.68 70.152 238.693 69.9387 235.792 69.512C232.891 69.0853 230.288 68.5307 227.984 67.848L231.056 60.68C230.8 62.728 230.672 64.776 230.672 66.824C230.672 70.4933 231.995 73.096 234.64 74.632C237.371 76.168 241.125 76.936 245.904 76.936C250.512 76.936 254.437 76.4667 257.68 75.528C260.923 74.504 263.781 73.5227 266.256 72.584C268.731 71.56 271.077 71.048 273.296 71.048C274.832 71.048 276.411 71.432 278.032 72.2C279.653 72.968 281.019 74.1627 282.128 75.784C283.237 77.4053 283.792 79.5813 283.792 82.312C283.792 86.0667 282.384 89.4373 279.568 92.424C276.752 95.4107 272.571 97.7573 267.024 99.464C261.563 101.171 254.779 102.024 246.672 102.024ZM239.248 57.352C243.344 57.352 246.885 56.3707 249.872 54.408C252.859 52.36 254.352 49.8853 254.352 46.984C254.352 45.1067 253.669 43.5707 252.304 42.376C250.939 41.1813 249.061 40.584 246.672 40.584C244.027 40.584 241.509 41.096 239.12 42.12C236.816 43.144 234.939 44.4667 233.488 46.088C232.037 47.7093 231.312 49.5013 231.312 51.464C231.312 53.3413 231.995 54.792 233.36 55.816C234.811 56.84 236.773 57.352 239.248 57.352ZM353.904 8.96799C365.168 8.96799 373.445 11.5707 378.736 16.776C384.112 21.9813 386.8 28.808 386.8 37.256C386.8 43.0587 385.435 48.0933 382.704 52.36C380.059 56.6267 376.432 59.9547 371.824 62.344C367.301 64.648 362.139 65.8 356.336 65.8C354.288 65.8 352.112 65.6293 349.808 65.288C347.504 64.8613 345.115 64.2213 342.64 63.368L343.792 59.784C344.475 61.6613 345.029 64.008 345.456 66.824C345.968 69.5547 346.352 72.4133 346.608 75.4C346.949 78.3013 347.12 80.9893 347.12 83.464C347.12 89.4373 345.669 94.0027 342.768 97.16C339.952 100.317 335.685 101.896 329.968 101.896C325.616 101.896 322.203 100.872 319.728 98.824C317.339 96.6907 315.632 93.2347 314.608 88.456C313.669 83.6773 313.2 77.32 313.2 69.384C313.2 58.632 313.84 49.4587 315.12 41.864C316.485 34.2693 318.405 28.2107 320.88 23.688C323.355 19.1653 327.408 15.5813 333.04 12.936C338.672 10.2907 345.627 8.96799 353.904 8.96799ZM350.32 47.368C354.501 47.368 357.957 46.3013 360.688 44.168C363.504 42.0347 364.912 39.1333 364.912 35.464C364.912 33.0747 364.144 31.112 362.608 29.576C361.157 27.9547 358.597 27.144 354.928 27.144C352.112 27.144 349.595 27.7413 347.376 28.936C345.243 30.0453 343.536 31.5387 342.256 33.416C341.061 35.2933 340.464 37.2987 340.464 39.432C340.464 41.736 341.275 43.656 342.896 45.192C344.603 46.6427 347.077 47.368 350.32 47.368ZM407.325 2.824C412.616 2.824 416.37 4.06133 418.589 6.536C420.893 9.01066 422.045 11.8693 422.045 15.112C422.045 19.0373 420.637 22.1093 417.821 24.328C415.005 26.4613 411.08 27.528 406.045 27.528C401.096 27.528 397.384 26.3333 394.909 23.944C392.52 21.5547 391.325 18.7387 391.325 15.496C391.325 11.3147 392.776 8.15733 395.677 6.02399C398.664 3.89066 402.546 2.824 407.325 2.824ZM408.733 31.368C412.914 31.368 416.157 33.928 418.461 39.048C420.85 44.168 422.045 52.3173 422.045 63.496C422.045 77.2347 420.552 87.1333 417.565 93.192C414.664 99.2507 410.226 102.28 404.253 102.28C399.56 102.28 396.104 100.061 393.885 95.624C391.752 91.1013 390.685 83.2507 390.685 72.072C390.685 58.3333 392.349 48.136 395.677 41.48C399.005 34.7387 403.357 31.368 408.733 31.368ZM462.513 102.408C450.14 102.408 441.052 99.336 435.249 93.192C429.446 87.048 426.545 78.5147 426.545 67.592C426.545 59.144 428.252 51.6773 431.665 45.192C435.164 38.6213 440.156 33.5013 446.641 29.832C453.212 26.0773 461.062 24.2 470.193 24.2C478.556 24.2 484.956 25.8213 489.393 29.064C493.83 32.3067 496.049 36.8293 496.049 42.632C496.049 46.728 494.684 49.9707 491.953 52.36C489.308 54.664 485.468 55.816 480.433 55.816C478.47 55.816 476.593 55.7733 474.801 55.688C473.009 55.5173 471.345 55.3893 469.809 55.304C468.273 55.2187 466.822 55.176 465.457 55.176C462.3 55.176 459.868 55.8587 458.161 57.224C456.54 58.5893 455.729 60.6373 455.729 63.368C455.729 65.8427 456.582 67.6773 458.289 68.872C459.996 70.0667 462.3 70.664 465.201 70.664C466.481 70.664 467.932 70.536 469.553 70.28C471.26 69.9387 473.052 69.64 474.929 69.384C476.806 69.128 478.641 69 480.433 69C484.358 69 487.601 70.1093 490.161 72.328C492.721 74.4613 494.001 77.6187 494.001 81.8C494.001 85.9813 492.849 89.6507 490.545 92.808C488.241 95.88 484.742 98.2693 480.049 99.976C475.441 101.597 469.596 102.408 462.513 102.408ZM513.006 102.28C510.105 102.28 507.715 101.64 505.838 100.36C504.046 99.08 502.766 97.16 501.998 94.6C501.23 92.04 500.59 87.8587 500.078 82.056C499.566 76.168 499.31 69.8107 499.31 62.984C499.31 54.024 499.609 45.4053 500.206 37.128C500.889 28.8507 501.742 22.0667 502.766 16.776C503.875 10.9733 505.753 6.74933 508.398 4.104C511.129 1.45866 514.499 0.135994 518.51 0.135994C522.521 0.135994 525.593 1.67199 527.726 4.744C529.945 7.73066 531.054 12.936 531.054 20.36C531.054 24.0293 530.883 28.04 530.542 32.392C530.286 36.6587 529.774 41.224 529.006 46.088H529.518C534.041 39.176 538.265 33.8427 542.19 30.088C546.115 26.3333 549.699 23.7307 552.942 22.28C556.27 20.8293 559.214 20.104 561.774 20.104C566.297 20.104 569.667 21.4693 571.886 24.2C574.19 26.9307 575.342 30.3013 575.342 34.312C575.342 39.7733 572.697 44.5093 567.406 48.52C562.201 52.5307 553.753 56.4133 542.062 60.168L543.086 58.12C550.083 61.0213 555.843 64.008 560.366 67.08C564.974 70.0667 568.387 73.224 570.606 76.552C572.91 79.7947 574.062 83.2933 574.062 87.048C574.062 91.2293 572.782 94.6 570.222 97.16C567.662 99.6347 564.121 100.872 559.598 100.872C555.417 100.872 551.449 99.976 547.694 98.184C544.025 96.3067 540.654 93.192 537.582 88.84C534.595 84.4027 531.95 78.3867 529.646 70.792H529.134C529.049 74.4613 528.75 78.1733 528.238 81.928C527.726 85.5973 527.129 88.6693 526.446 91.144C525.593 94.5573 524.057 97.288 521.838 99.336C519.705 101.299 516.761 102.28 513.006 102.28Z" fill="#AA6866"/>
</svg>
